<?xml version="1.0" standalone="no"?><!DOCTYPE svg PUBLIC "-//W3C//DTD SVG 1.1//EN" "http://www.w3.org/Graphics/SVG/1.1/DTD/svg11.dtd"><svg t="1730180802915" class="icon" viewBox="0 0 1024 1024" version="1.1" xmlns="http://www.w3.org/2000/svg" p-id="14329" xmlns:xlink="http://www.w3.org/1999/xlink" width="200" height="200"><path d="M914.149015 695.405016a38.342472 38.342472 0 0 0-38.342472 38.342472V915.10738a32.974526 32.974526 0 0 1-32.974526 32.974526h-434.548015a38.342472 38.342472 0 0 0 0 75.918094h498.196518a45.75535 45.75535 0 0 0 45.75535-45.627542V733.364063a38.342472 38.342472 0 0 0-38.086855-37.959047zM397.164685 708.824881a44.9885 44.9885 0 0 0-2.044932-61.220147 45.883158 45.883158 0 0 0-63.265078 0L66.269153 913.701489l-1.405891 1.917124a44.9885 44.9885 0 0 0 2.044932 61.220147 44.860692 44.860692 0 0 0 63.90412 0l264.818672-266.096756zM481.77374 410.520449h57.002475a35.147266 35.147266 0 0 0 33.996992-26.328497L590.538552 306.740159l39.876171 181.871125a35.786307 35.786307 0 0 0 31.568635 26.328497h1.022466a36.936581 36.936581 0 0 0 31.95206-22.877675l29.140278-115.027415 9.330002 12.141782 1.022466 1.278083c12.780824 15.209181 17.509729 20.32151 37.447814 19.55466h49.333981A24.283566 24.283566 0 0 0 842.704209 383.425103a24.155757 24.155757 0 0 0-21.855209-25.561648H776.755157l-27.478771-39.620555a39.748363 39.748363 0 0 0-26.456306-19.426852 33.869184 33.869184 0 0 0-35.786307 24.283565L665.561989 405.40812l-41.921103-190.94551a35.019458 35.019458 0 0 0-31.696443-28.629046 34.380416 34.380416 0 0 0-30.801786 27.223155L524.972925 359.908386h-43.199185A23.2611 23.2611 0 0 0 461.835654 383.425103a25.561648 25.561648 0 0 0 19.938086 27.095346z" p-id="14330" fill="#1296db"></path><path d="M656.74322 707.802415h5.879179A355.562523 355.562523 0 0 0 1010.644236 353.901399v-5.879179a353.901016 353.901016 0 1 0-353.901016 359.780195zM378.888107 353.901399A278.238538 278.238538 0 0 1 656.74322 75.918478h4.601097a279.133196 279.133196 0 0 1 273.381824 277.982921v4.601097a277.982921 277.982921 0 0 1-555.838034-4.601097zM89.65806 606.578289V108.893004a33.102334 33.102334 0 0 1 32.974526-32.974526h118.606047a38.342472 38.342472 0 0 0 0-75.918095H59.495316A45.75535 45.75535 0 0 0 13.739966 45.755733v560.822556a38.342472 38.342472 0 1 0 75.918094 0z" p-id="14331" fill="#1296db"></path></svg>