<?xml version="1.0" standalone="no"?><!DOCTYPE svg PUBLIC "-//W3C//DTD SVG 1.1//EN" "http://www.w3.org/Graphics/SVG/1.1/DTD/svg11.dtd"><svg t="1730175936216" class="icon" viewBox="0 0 1140 1024" version="1.1" xmlns="http://www.w3.org/2000/svg" p-id="4664" xmlns:xlink="http://www.w3.org/1999/xlink" width="222.65625" height="200"><path d="M79.6033 814.58717h788.105696v209.082526H79.6033z" fill="#FFE610" p-id="4665"></path><path d="M79.6033 979.078636h788.105696V1024H79.6033z" fill="#FFC200" p-id="4666"></path><path d="M478.280406 766.032461h344.83753v180.01576H478.280406z" fill="#B86805" p-id="4667"></path><path d="M861.102913 742.91117a22.790986 22.790986 0 0 0-22.790987-22.790986H462.425807a22.790986 22.790986 0 0 0-23.121291 22.790986 23.12129 23.12129 0 0 0 23.121291 23.121291h375.886119a22.790986 22.790986 0 0 0 22.790987-23.121291z" fill="#F7A53F" p-id="4668"></path><path d="M548.965493 899.475336a19.818249 19.818249 0 0 1-19.818249 19.818249 19.818249 19.818249 0 0 1-19.487944-19.818249v-87.200295A19.818249 19.818249 0 0 1 528.486636 792.787097a19.818249 19.818249 0 0 1 19.818249 19.818249zM668.535595 899.475336a19.487945 19.487945 0 0 1-19.487945 19.818249 19.487945 19.487945 0 0 1-19.487945-19.818249v-87.200295a19.487945 19.487945 0 0 1 19.487945-19.818248 19.487945 19.487945 0 0 1 19.487945 19.818248zM788.436 899.475336a19.818249 19.818249 0 0 1-19.818249 19.818249 19.818249 19.818249 0 0 1-19.487944-19.818249v-87.200295a19.818249 19.818249 0 0 1 19.487944-19.818248 19.818249 19.818249 0 0 1 19.818249 19.818248z" fill="#FFFFFF" p-id="4669"></path><path d="M509.328996 665.62h282.410046v54.500184h-282.410046z" fill="#7A807D" p-id="4670"></path><path d="M1139.549309 122.930286a63.418396 63.418396 0 0 1-63.088092 59.454746h-4.293954l-44.921364-3.303041-150.948996-9.909125-375.225511-25.103115a66.06083 66.06083 0 0 1-31.378894-11.890949 63.7487 63.7487 0 0 1-27.415244-56.812314 61.106267 61.106267 0 0 1 2.312129-13.54247 62.757788 62.757788 0 0 1 36.333456-39.636497 54.500184 54.500184 0 0 1 19.15764-4.624259h9.578821l571.095871 37.984977a63.088092 63.088092 0 0 1 58.794138 67.382047z" fill="#FFC200" p-id="4671"></path><path d="M749.460111 575.116663v90.503337h-198.182489v-90.503337a99.091244 99.091244 0 0 1 94.136682-99.091244h4.954563a99.091244 99.091244 0 0 1 69.694175 29.066765 99.091244 99.091244 0 0 1 26.754636 47.894102 119.570101 119.570101 0 0 1 2.642433 22.130377z" fill="#3F3F3F" p-id="4672"></path><path d="M1058.955097 115.993898a62.757788 62.757788 0 0 1-12.881862 37.984977l-18.827336 25.103116-157.555079 210.073437-33.030414 46.572885-46.242581 59.785051-10.569733 13.54247-8.257603 10.900037-10.900037 14.863686-13.54247 18.166729-44.260756 58.794138a63.418396 63.418396 0 0 1-114.285235-37.984977 62.427484 62.427484 0 0 1 12.551558-37.984977l44.591059-59.454747 231.212904-307.182857 67.71235-91.163945a63.418396 63.418396 0 0 1 114.285235 37.984977z" fill="#FFE610" p-id="4673"></path><path d="M1027.245899 124.91211a33.030415 33.030415 0 1 1-24.772811-38.315281 33.030415 33.030415 0 0 1 24.772811 38.315281z" fill="#FFFFFF" p-id="4674"></path><path d="M1016.015558 122.599981a20.478857 20.478857 0 0 1-40.297106-8.918212 20.148553 20.148553 0 0 1 24.442507-14.533382 20.478857 20.478857 0 0 1 15.854599 23.451594z" fill="#54D9D9" p-id="4675"></path><path d="M700.905401 582.383355a47.233493 47.233493 0 1 1-36.333456-56.151705 47.233493 47.233493 0 0 1 36.333456 56.151705z" fill="#FFFFFF" p-id="4676"></path><path d="M684.05989 578.750009a30.057677 30.057677 0 0 1-35.672848 23.12129 30.718286 30.718286 0 0 1-23.121291-36.003152 30.057677 30.057677 0 0 1 35.342544-22.790986 29.727373 29.727373 0 0 1 23.451595 35.672848z" fill="#54D9D9" p-id="4677"></path><path d="M333.937493 359.097751L178.36424 211.121493a107.348848 107.348848 0 0 0 155.573253 147.976258z" fill="#7A807D" p-id="4678"></path><path d="M283.400959 337.958286a25.433419 25.433419 0 1 0 0 36.333456 25.763724 25.763724 0 0 0 0-36.333456zM199.834009 260.336811a25.433419 25.433419 0 0 0-36.333456 0A25.763724 25.763724 0 0 0 165.152074 297.330875a25.763724 25.763724 0 0 0 34.681935-36.994064z" fill="#4D4D4D" p-id="4679"></path><path d="M222.9553 475.695115a18.166728 18.166728 0 0 0-24.772811-10.239428l-126.176185 49.215317a18.497032 18.497032 0 0 0-10.569733 23.781899 18.497032 18.497032 0 0 0 23.781899 10.239429l127.167097-49.215318a18.166728 18.166728 0 0 0 10.569733-23.781899z" fill="#7A807D" p-id="4680"></path><path d="M272.831226 342.912848a18.166728 18.166728 0 0 0-24.442507 8.257603l-58.794138 123.533752a17.836424 17.836424 0 0 0 8.587908 24.112202 17.836424 17.836424 0 0 0 24.112202-8.587907l59.124443-123.203447a18.166728 18.166728 0 0 0-8.587908-24.112203z" fill="#F7A53F" p-id="4681"></path><path d="M66.06083 327.388553a17.836424 17.836424 0 0 1 11.560645 22.790986l-42.278931 129.80953a18.166728 18.166728 0 0 1-22.790986 11.560645 18.166728 18.166728 0 0 1-11.560646-23.12129l43.269844-129.479226A17.836424 17.836424 0 0 1 66.06083 327.388553z" fill="#7A807D" p-id="4682"></path><path d="M198.182489 271.236848a18.497032 18.497032 0 0 1-7.9273 26.094027l-120.23071 66.06083a18.497032 18.497032 0 0 1-24.772811-7.596995 18.166728 18.166728 0 0 1 7.596996-25.43342l120.230709-66.060829a18.166728 18.166728 0 0 1 25.103116 6.936387z" fill="#F7A53F" p-id="4683"></path><path d="M215.358304 472.722378a13.872774 13.872774 0 0 0-18.827336 20.148553 13.872774 13.872774 0 0 0 19.487944 0 13.54247 13.54247 0 0 0-0.660608-20.148553z" fill="#7A807D" p-id="4684"></path><path d="M212.055263 476.355723a8.918212 8.918212 0 1 0 0 12.551558 8.918212 8.918212 0 0 0 0-12.551558z" fill="#4D4D4D" p-id="4685"></path><path d="M71.345696 334.655244a13.54247 13.54247 0 0 0-19.487945 0 13.872774 13.872774 0 0 0 0 19.487945 13.872774 13.872774 0 0 0 19.157641-19.818249z" fill="#7A807D" p-id="4686"></path><path d="M67.71235 337.958286a8.918212 8.918212 0 0 0-11.890949 12.881861 8.587908 8.587908 0 0 0 12.221253 0 8.918212 8.918212 0 0 0-0.330304-12.881861z" fill="#4D4D4D" p-id="4687"></path><path d="M178.628483 211.022402l56.977465-59.785051 155.408102 148.14141-56.977466 59.785051z" fill="#F7A53F" p-id="4688"></path><path d="M420.807484 190.642636l-68.703263 72.006304-82.245732-78.942691 44.260755-46.242581 15.193991-16.184903 8.918212-9.248516 14.203078 13.54247 53.839576 51.527447 14.533383 13.54247z" fill="#7A807D" p-id="4689"></path><path d="M490.171355 46.960332l-84.888166 29.397069a36.003152 36.003152 0 0 0-12.881862 7.596995l-2.312129 1.981825-62.757788 66.060829a37.654673 37.654673 0 0 0 0 52.848664 36.66376 36.66376 0 0 0 26.754636 10.239429 35.342544 35.342544 0 0 0 26.094028-11.560645l56.482009-59.124443 76.630562-26.754636a37.324369 37.324369 0 1 0-24.442507-70.354783z" fill="#FFE610" p-id="4690"></path><path d="M373.243687 157.942525a25.763724 25.763724 0 0 0-35.342544 37.324369 25.763724 25.763724 0 1 0 35.342544-37.324369z" fill="#FFFFFF" p-id="4691"></path><path d="M366.967908 165.209216a16.515207 16.515207 0 0 0-23.451595 0 16.184903 16.184903 0 0 0 0 23.121291 16.515207 16.515207 0 0 0 23.121291 0 16.845512 16.845512 0 0 0 0.330304-23.121291z" fill="#54D9D9" p-id="4692"></path><path d="M521.219945 63.805843a25.763724 25.763724 0 1 0-35.342544 37.324369 25.763724 25.763724 0 0 0 35.342544-37.324369z" fill="#FFFFFF" p-id="4693"></path><path d="M514.944166 70.411926a16.515207 16.515207 0 0 0-23.451594 0 16.184903 16.184903 0 0 0 0 23.12129 16.515207 16.515207 0 0 0 23.12129 0 16.845512 16.845512 0 0 0 0.330304-23.12129z" fill="#54D9D9" p-id="4694"></path><path d="M857.106232 429.518595l81.22179-112.435532 55.68928 40.231046-81.254821 112.435531z" fill="#707070" p-id="4695"></path><path d="M953.621104 328.643709l82.906341-114.912813 23.05523 16.647329-82.906341 114.879782z" fill="#7A807D" p-id="4696"></path><path d="M1061.267226 237.215521a20.478857 20.478857 0 0 1-27.415244 9.57882 20.478857 20.478857 0 0 1-9.909125-27.415244l33.030415-69.033567a20.809161 20.809161 0 0 1 27.745549-9.578821 20.809161 20.809161 0 0 1 9.57882 27.745549z" fill="#F7A53F" p-id="4697"></path><path d="M800.326949 429.452534a26.754636 26.754636 0 0 1-20.478857-33.030414 26.094028 26.094028 0 0 1 31.04859-20.148553l95.788203 19.818249a26.424332 26.424332 0 0 1 20.148553 33.030414 25.763724 25.763724 0 0 1-31.04859 20.148553z" fill="#FFE610" p-id="4698"></path><path d="M1086.370341 165.209216a11.890949 11.890949 0 1 1-2.642433-16.515207 11.560645 11.560645 0 0 1 2.642433 16.515207zM1053.339927 234.903392a11.890949 11.890949 0 1 1-2.642434-16.515208 11.560645 11.560645 0 0 1 2.642434 16.515208zM816.511853 414.588848a15.524295 15.524295 0 0 1-21.46977-1.651521 14.863687 14.863687 0 0 1 1.651521-21.46977 15.193991 15.193991 0 0 1 19.818249 23.121291zM910.648535 433.746488a15.193991 15.193991 0 0 1-21.46977 0 15.524295 15.524295 0 0 1 0-21.469769 15.193991 15.193991 0 0 1 21.46977 0 15.524295 15.524295 0 0 1 0 21.469769zM500.080479 17.563262a54.500184 54.500184 0 0 0-19.15764 4.624259A109.660977 109.660977 0 0 0 363.334562 33.087557a93.806378 93.806378 0 0 0-33.030414 88.851816l-15.193991 16.184903A107.348848 107.348848 0 0 1 385.46494 9.966267a128.818618 128.818618 0 0 1 114.615539 7.596995zM792.729954 703.935281v-18.827336a105.697327 105.697327 0 0 0 22.130378-110.321586 194.879447 194.879447 0 0 0-33.030415-66.060829l10.569733-13.54247a198.182489 198.182489 0 0 1 47.894101 106.357935 112.30341 112.30341 0 0 1-47.563797 102.394286z" fill="#FFFFFF" p-id="4699"></path><path d="M766.635926 665.62h-17.175815a126.506489 126.506489 0 0 0 11.230341-132.121659l10.900037-14.863687a132.121659 132.121659 0 0 1-4.954563 146.985346z" fill="#FFFFFF" p-id="4700"></path><path d="M114.945843 672.226083h303.879816v190.255189h-303.879816z" fill="#F7A53F" p-id="4701"></path><path d="M114.945843 862.481272h303.879816v85.879078h-303.879816z" fill="#B86805" p-id="4702"></path><path d="M138.727742 694.356461h160.197512v97.439723H138.727742z" fill="#FFFFFF" p-id="4703"></path><path d="M152.270212 706.24741H284.061567v73.327521H152.270212z" fill="#54D9D9" p-id="4704"></path><path d="M194.549143 706.24741l-10.239429 73.327521h-32.039502v-73.327521h42.278931z" fill="#FFFFFF" opacity=".36" p-id="4705"></path><path d="M315.770765 694.356461h24.442507v19.487944h-24.442507z" fill="#F2F2F2" p-id="4706"></path><path d="M347.149659 694.356461h24.442507v19.487944h-24.442507z" fill="#FFFFFF" p-id="4707"></path><path d="M378.198249 694.356461h24.442507v19.487944h-24.442507z" fill="#F2F2F2" p-id="4708"></path><path d="M315.770765 720.450488h24.442507v19.487945h-24.442507zM347.149659 720.450488h24.442507v19.487945h-24.442507z" fill="#FFFFFF" p-id="4709"></path><path d="M378.198249 720.450488h24.442507v19.487945h-24.442507z" fill="#97D8E8" p-id="4710"></path><path d="M315.770765 746.544516h24.442507v19.487945h-24.442507z" fill="#F2F2F2" p-id="4711"></path><path d="M347.149659 746.544516h24.442507v19.487945h-24.442507zM378.198249 746.544516h24.442507v19.487945h-24.442507z" fill="#FFFFFF" p-id="4712"></path><path d="M315.770765 772.638544h24.442507v19.487944h-24.442507z" fill="#EB512A" p-id="4713"></path><path d="M347.149659 772.638544h24.442507v19.487944h-24.442507z" fill="#FFFFFF" p-id="4714"></path><path d="M378.198249 772.638544h24.442507v19.487944h-24.442507z" fill="#80C41C" p-id="4715"></path><path d="M326.010194 823.175078a17.50612 17.50612 0 0 1-17.50612 17.50612H155.903558a17.175816 17.175816 0 0 1-17.175816-17.50612 17.175816 17.175816 0 0 1 17.175816-17.175815h152.600516a17.175816 17.175816 0 0 1 17.50612 17.175815z" fill="#FFFFFF" p-id="4716"></path><path d="M312.798028 823.175078a7.266691 7.266691 0 0 1-7.266692 7.596996h-69.363871v-14.863687h69.363871a7.266691 7.266691 0 0 1 7.266692 7.266691z" fill="#EB512A" p-id="4717"></path><path d="M236.167465 815.908387v14.863687H158.876295a7.266691 7.266691 0 0 1-7.266691-7.596996 7.266691 7.266691 0 0 1 7.266691-7.266691zM365.316387 823.175078a12.551558 12.551558 0 0 1-25.103115 0 12.551558 12.551558 0 0 1 25.103115 0z" fill="#80C41C" p-id="4718"></path><path d="M399.337714 823.175078a12.551558 12.551558 0 0 1-25.103115 0 12.551558 12.551558 0 0 1 25.103115 0z" fill="#EB512A" p-id="4719"></path></svg>